<?xml version="1.0" encoding="utf-8"?>
<!-- Generator: Adobe Illustrator 26.4.1, SVG Export Plug-In . SVG Version: 6.00 Build 0)  -->
<svg version="1.1" id="Canto" xmlns="http://www.w3.org/2000/svg" xmlns:xlink="http://www.w3.org/1999/xlink" x="0px" y="0px"
	 viewBox="0 0 1366 768" style="enable-background:new 0 0 1366 768;" xml:space="preserve">
<path id="o" d="M1337.37,363.7h-6.48v-12.57h-18.04v-12.3h-7.27v-13.58h-17.26v-22.98h-150.53v24.5h-25.05v24.36h-23.44v155.2h5.96
	v9.31h17.13v17.13h25.4v20.49h6.26v12.66h146.01v-24.21h22.78v-26.07h24.53V363.7z M1163.05,483.39v-12.44h-19v-82.38h24.96v-24.51
	h90.3v12.95h3.79v11.56h14.67v82.38h-20.11v23.84h-90.89v-11.4H1163.05z"/>
<polygon id="t" points="1039.65,367.04 1039.65,364.06 1047.06,364.06 1047.06,302.27 1039.65,302.27 1039.65,296.07 996.16,296.07 
	996.16,204.84 996.16,200.13 949.87,200.13 949.87,204.84 941.57,204.84 941.57,296.07 903.08,296.07 903.08,302.27 893.45,302.27 
	893.45,364.06 903.08,364.06 903.08,367.04 941.57,367.04 941.57,512.98 949.87,512.98 949.87,516.88 965.2,516.88 965.2,529.54 
	971.37,529.54 971.37,537.71 987.79,537.71 987.79,554.81 996.16,554.81 996.16,565.9 1044.07,565.9 1044.07,502.97 1039.65,502.97 
	1039.65,496.37 1020.12,496.37 1020.12,483.39 1016.15,483.39 1016.15,471.38 996.16,471.38 996.16,367.04 "/>
<polygon id="n" points="850.68,361.79 850.68,350.31 832.85,350.31 832.85,339.19 826.37,339.19 826.37,325.25 809.63,325.25 
	809.63,314.5 805.84,314.5 805.84,296.07 620.03,296.07 620.03,299.91 609.03,299.91 609.03,559.04 617.33,559.04 617.33,565.9 
	662.7,565.9 662.7,559.04 665.82,559.04 665.82,370.07 778.84,370.07 778.84,376.01 783.1,376.01 783.1,388.94 802.6,388.94 
	802.6,554.81 809.63,554.81 809.63,559.04 857.16,559.04 857.16,361.79 "/>
<path id="a" d="M561.01,361.79v-11.48h-18.33v-11.12h-5.14v-13.93h-19.07V314.5h-5.38v-12.22H366.9v56.72h4.89v4.89h115.63v11.49
	h5.5v13.57h20.17v10.63H366.9v23.25h-23.19v24.42h-24.46v49.63h2.77v6.27h4.7v12.5h16.99v15.2h8.94v6.31h14.25v13.54h8.11v12.97
	h8.05v2.24h184.66v-18.33v-51.78v-134H561.01z M399.6,460.38h112.88v35.41H399.6V460.38z"/>
<polygon id="C" points="277.69,271.45 277.69,267.04 273.19,267.04 273.19,255.99 259.56,255.99 259.56,251.81 250.74,251.81 
	250.74,229.52 227.9,229.52 227.9,204.91 83.79,204.91 83.79,207.72 76.44,207.72 76.44,229.52 52.17,229.52 52.17,255.27 
	28.63,255.27 28.63,514.18 52.17,514.18 52.17,522.27 56.21,522.27 56.21,534.04 79.38,534.04 79.38,549.48 83.79,549.48 
	83.79,559.04 93.36,559.04 93.36,567.87 218.4,567.87 218.4,559.04 228.7,559.04 228.7,540.29 252.97,540.29 252.97,517.92 
	277.69,517.92 277.69,458.42 271.36,458.42 271.36,447.24 221.34,447.24 221.34,470.04 197.8,470.04 197.8,495.79 107.33,495.79 
	107.33,481.81 101.45,481.81 101.45,470.04 83.79,470.04 83.79,317.34 88.94,317.34 88.94,299.91 114.47,299.91 114.47,271.45 
	197.8,271.45 197.8,282.46 203.45,282.46 203.45,291.09 214.27,291.09 214.27,299.91 224.27,299.91 224.27,317.34 253.15,317.34 
	277.69,317.34 284.01,317.34 284.01,271.45 "/>
</svg>
